<svg fill="#000000" xmlns="http://www.w3.org/2000/svg"  viewBox="0 0 64 64" width="64px" height="64px"><path d="M18.293 15.293l1.414 1.414 1.5-1.5a4.539 4.539 0 000-6.414 2.538 2.538 0 010-3.586l1.5-1.5L21.293 2.293l-1.5 1.5a4.539 4.539 0 000 6.414 2.538 2.538 0 010 3.586zM30.293 15.293l1.414 1.414 1.5-1.5a4.539 4.539 0 000-6.414 2.538 2.538 0 010-3.586l1.5-1.5L33.293 2.293l-1.5 1.5a4.539 4.539 0 000 6.414 2.538 2.538 0 010 3.586zM43.293 15.293l1.414 1.414 1.5-1.5a4.539 4.539 0 000-6.414 2.538 2.538 0 010-3.586l1.5-1.5L46.293 2.293l-1.5 1.5a4.539 4.539 0 000 6.414 2.538 2.538 0 010 3.586zM61 23H57.493a8.96 8.96 0 00-1.109-1.361A8.853 8.853 0 0050.058 19H47v1H42V19H35v1H30V19H23v1H18V19H14.21a8.656 8.656 0 00-5.593 2.639A8.907 8.907 0 007.507 23H3a1 1 0 00-1 1V61a1 1 0 001 1H61a1 1 0 001-1V24A1 1 0 0061 23zM54.964 52.952A6.866 6.866 0 0150.058 55H14.942a6.866 6.866 0 01-4.906-2.048 7.047 7.047 0 010-9.9A6.716 6.716 0 0114.21 41h2.429c-.019.331-.03.664-.03 1 0 3.976 1.366 8 3.978 8s3.978-4.024 3.978-8c0-.335-.011-.669-.03-1h4.017c-.018.331-.03.664-.03 1 0 3.976 1.366 8 3.978 8s3.978-4.024 3.978-8c0-.336-.012-.669-.03-1h4.017c-.019.331-.03.665-.03 1 0 3.976 1.366 8 3.978 8s3.978-4.024 3.978-8c0-.336-.011-.669-.03-1h1.7a6.866 6.866 0 014.906 2.048A7.047 7.047 0 0154.964 52.952zM56 54.712V55h-.324C55.787 54.909 55.892 54.809 56 54.712zM8 53.673A8.831 8.831 0 009.324 55H8zM22.565 42c0 3.722-1.28 6-1.978 6s-1.978-2.278-1.978-6zm11.913 0c0 3.722-1.281 6-1.978 6s-1.978-2.278-1.978-6zm11.913 0c0 3.722-1.281 6-1.978 6s-1.978-2.278-1.978-6zm9.723-.608A8.839 8.839 0 0050.058 39H47v1H42V39H35v1H30V39H23v1H18V39H14.21a8.545 8.545 0 00-5.332 2.4 7.045 7.045 0 011.158-8.351A6.716 6.716 0 0114.21 31h2.429c-.019.331-.03.664-.03 1 0 3.976 1.366 8 3.978 8s3.978-4.024 3.978-8c0-.335-.011-.669-.03-1h4.017c-.018.331-.03.664-.03 1 0 3.976 1.366 8 3.978 8s3.978-4.024 3.978-8c0-.336-.012-.669-.03-1h4.017c-.019.331-.03.665-.03 1 0 3.976 1.366 8 3.978 8s3.978-4.024 3.978-8c0-.336-.011-.669-.03-1h1.7a6.951 6.951 0 015.418 2.623h0A7 7 0 0156.114 41.392zM22.565 32c0 3.722-1.28 6-1.978 6s-1.978-2.278-1.978-6zm11.913 0c0 3.722-1.281 6-1.978 6s-1.978-2.278-1.978-6zm11.913 0c0 3.722-1.281 6-1.978 6s-1.978-2.278-1.978-6zm0-10c0 3.722-1.281 6-1.978 6s-1.978-2.278-1.978-6zM34.478 22c0 3.722-1.281 6-1.978 6s-1.978-2.278-1.978-6zM22.565 22c0 3.722-1.28 6-1.978 6s-1.978-2.278-1.978-6zM10.036 23.048A6.716 6.716 0 0114.21 21h2.429c-.019.331-.03.664-.03 1 0 3.976 1.366 8 3.978 8s3.978-4.024 3.978-8c0-.335-.011-.669-.03-1h4.017c-.018.331-.03.664-.03 1 0 3.976 1.366 8 3.978 8s3.978-4.024 3.978-8c0-.336-.012-.669-.03-1h4.017c-.019.331-.03.665-.03 1 0 3.976 1.366 8 3.978 8s3.978-4.024 3.978-8c0-.336-.011-.669-.03-1h1.7a6.866 6.866 0 014.906 2.048A7.048 7.048 0 0156.122 31.4 8.837 8.837 0 0050.058 29H47v1H42V29H35v1H30V29H23v1H18V29H14.21a8.545 8.545 0 00-5.332 2.4A7.045 7.045 0 0110.036 23.048zM60 60H4V25H6.521a9.051 9.051 0 00.991 7.992 9.06 9.06 0 000 10A9.053 9.053 0 006.065 49H6v7a1 1 0 001 1H57a1 1 0 001-1V52.131A9.081 9.081 0 0057.488 43a9 9 0 000-10A9.054 9.054 0 0058.479 25H60z"/></svg>